<svg width="1317" height="777" viewBox="0 0 1317 777" fill="none" xmlns="http://www.w3.org/2000/svg">
<path opacity="0.8" d="M130 24.9999V504L197 452V406H317V533L12 777L20 758V24.9999L-1.41561e-06 -3.57628e-05H150L130 24.9999ZM606.008 -3.57628e-05L650.008 51V633L487.008 771L350.008 644V55L392.008 -3.57628e-05H606.008ZM463.008 108V558L530.008 617V108H463.008ZM863.016 629L678.016 777L686.016 758V24.9999L666.016 -3.57628e-05H915.016L983.016 41V142H863.016V118H796.016V501L863.016 452V398H827.016V280H983.016V533L863.016 629ZM1272.02 -3.57628e-05L1316.02 51V633L1153.02 771L1016.02 644V55L1058.02 -3.57628e-05H1272.02ZM1129.02 108V558L1196.02 617V108H1129.02Z" fill="#EF4523"/>
</svg>
