<svg width="762" height="102" viewBox="0 0 762 102" fill="none" xmlns="http://www.w3.org/2000/svg">
<g filter="url(#filter0_b_156_155)">
<mask id="path-1-outside-1_156_155" maskUnits="userSpaceOnUse" x="0" y="0" width="762" height="102" fill="black">
<rect fill="white" width="762" height="102"/>
<path d="M32.0317 2.7931C53.9201 2.7931 66.9423 16.5862 66.9423 34.2414C66.9423 51.8966 53.9201 65.8276 32.0317 65.8276H14.8534V95.6207C14.8534 97.6897 13.3296 99.3448 11.2515 99.3448H4.74043C2.66241 99.3448 1 97.6897 1 95.6207V6.51724C1 4.44828 2.66241 2.7931 4.74043 2.7931H32.0317ZM32.0317 53.1379C45.0539 53.1379 52.8118 45.5517 52.8118 34.2414C52.8118 22.931 45.0539 15.3448 32.0317 15.3448H14.8534V53.1379H32.0317Z"/>
<path d="M143.326 99.3448C141.109 99.3448 139.308 97.9655 138.615 96.0345L131.55 76.0345H89.9899L82.9246 96.0345C82.2319 97.9655 80.431 99.3448 78.353 99.3448H70.318C68.6556 99.3448 67.4088 97.6897 68.1014 96.0345L101.765 5.96552C102.458 4.03448 104.259 2.7931 106.337 2.7931H115.203C117.281 2.7931 119.082 4.03448 119.775 5.96552L153.577 96.0345C154.131 97.6897 152.884 99.3448 151.222 99.3448H143.326ZM94.5615 63.4828H127.117L110.77 17.5517L94.5615 63.4828Z"/>
<path d="M208.929 88.1724C219.458 88.1724 227.908 84.1724 233.865 77.9655C235.112 76.5862 237.052 76.3103 238.575 77.4138L243.84 80.8621C245.779 82.1035 246.195 84.8621 244.532 86.5172C235.805 95.4828 223.337 101 208.929 101C180.252 101 159.611 79.3448 159.611 51.069C159.611 22.7931 180.252 1 208.929 1C223.337 1 235.805 6.51724 244.532 15.6207C246.195 17.2759 245.779 20.0345 243.84 21.2759L238.575 24.7241C237.052 25.6897 235.112 25.4138 233.865 24.1724C227.908 17.9655 219.458 13.9655 208.929 13.9655C186.348 13.9655 173.741 32.3103 173.741 51.069C173.741 69.8276 186.348 88.1724 208.929 88.1724Z"/>
<path d="M327.251 94.2414C329.052 96.3103 327.528 99.3448 324.896 99.3448H316.723C314.922 99.3448 313.259 98.5172 312.013 97.2759L274.47 54.2414V95.6207C274.47 97.6897 272.807 99.3448 270.868 99.3448H264.357C262.279 99.3448 260.616 97.6897 260.616 95.6207V6.51724C260.616 4.44828 262.279 2.7931 264.357 2.7931H270.868C272.807 2.7931 274.47 4.44828 274.47 6.51724V48.8621L309.658 5.13794C310.904 3.6207 312.705 2.7931 314.506 2.7931H321.71C324.204 2.7931 325.728 5.82759 324.065 7.75862L289.155 50.5172L327.251 94.2414Z"/>
<path d="M413.494 99.3448C411.278 99.3448 409.477 97.9655 408.784 96.0345L401.719 76.0345H360.159L353.093 96.0345C352.401 97.9655 350.6 99.3448 348.522 99.3448H340.487C338.824 99.3448 337.578 97.6897 338.27 96.0345L371.934 5.96552C372.627 4.03448 374.428 2.7931 376.506 2.7931H385.372C387.45 2.7931 389.251 4.03448 389.944 5.96552L423.746 96.0345C424.3 97.6897 423.053 99.3448 421.391 99.3448H413.494ZM364.73 63.4828H397.286L380.939 17.5517L364.73 63.4828Z"/>
<path d="M480.345 50.7931C480.345 48.8621 482.007 47.2069 484.085 47.2069H519.966C522.044 47.2069 523.706 48.8621 523.706 50.7931V96.3103C523.706 97.9655 522.321 99.3448 520.52 99.3448H517.61C515.948 99.3448 514.701 98.1035 514.563 96.4483L513.593 83.4828C506.943 94.3793 495.584 101 479.098 101C450.421 101 429.78 79.3448 429.78 51.069C429.78 22.7931 450.421 1 479.098 1C493.506 1 505.974 6.51724 514.701 15.6207C516.364 17.2759 515.948 20.0345 514.009 21.2759L508.744 24.7241C507.22 25.6897 505.281 25.4138 504.034 24.1724C498.077 17.9655 489.627 13.9655 479.098 13.9655C456.517 13.9655 443.91 32.3103 443.91 51.069C443.91 69.8276 456.517 88.1724 479.098 88.1724C499.462 88.1724 510.407 75.4828 512.623 59.7586H484.085C482.007 59.7586 480.345 58.1034 480.345 56.0345V50.7931Z"/>
<path d="M541.608 6.51724C541.608 4.44828 543.271 2.7931 545.349 2.7931H551.86C553.938 2.7931 555.6 4.44828 555.6 6.51724V95.6207C555.6 97.6897 553.938 99.3448 551.86 99.3448H545.349C543.271 99.3448 541.608 97.6897 541.608 95.6207V6.51724Z"/>
<path d="M637.229 6.51724C637.229 4.44828 638.892 2.7931 640.97 2.7931H647.481C649.42 2.7931 651.083 4.44828 651.083 6.51724V95.6207C651.083 97.6897 649.42 99.3448 647.481 99.3448H642.217C640.277 99.3448 638.338 98.3793 637.229 96.7241L588.742 28.1724V95.6207C588.742 97.6897 587.08 99.3448 585.141 99.3448H578.629C576.551 99.3448 574.889 97.6897 574.889 95.6207V6.51724C574.889 4.44828 576.551 2.7931 578.629 2.7931H583.755C585.833 2.7931 587.634 3.75863 588.881 5.41379L637.229 73.8276V6.51724Z"/>
<path d="M717.639 50.7931C717.639 48.8621 719.301 47.2069 721.379 47.2069H757.26C759.338 47.2069 761 48.8621 761 50.7931V96.3103C761 97.9655 759.615 99.3448 757.814 99.3448H754.904C753.242 99.3448 751.995 98.1035 751.857 96.4483L750.887 83.4828C744.237 94.3793 732.878 101 716.392 101C687.715 101 667.074 79.3448 667.074 51.069C667.074 22.7931 687.715 1 716.392 1C730.8 1 743.268 6.51724 751.995 15.6207C753.658 17.2759 753.242 20.0345 751.303 21.2759L746.038 24.7241C744.514 25.6897 742.575 25.4138 741.328 24.1724C735.371 17.9655 726.921 13.9655 716.392 13.9655C693.811 13.9655 681.204 32.3103 681.204 51.069C681.204 69.8276 693.811 88.1724 716.392 88.1724C736.757 88.1724 747.701 75.4828 749.917 59.7586H721.379C719.301 59.7586 717.639 58.1034 717.639 56.0345V50.7931Z"/>
</mask>
<path d="M32.0317 2.7931C53.9201 2.7931 66.9423 16.5862 66.9423 34.2414C66.9423 51.8966 53.9201 65.8276 32.0317 65.8276H14.8534V95.6207C14.8534 97.6897 13.3296 99.3448 11.2515 99.3448H4.74043C2.66241 99.3448 1 97.6897 1 95.6207V6.51724C1 4.44828 2.66241 2.7931 4.74043 2.7931H32.0317ZM32.0317 53.1379C45.0539 53.1379 52.8118 45.5517 52.8118 34.2414C52.8118 22.931 45.0539 15.3448 32.0317 15.3448H14.8534V53.1379H32.0317Z" fill="white" fill-opacity="0.09"/>
<path d="M143.326 99.3448C141.109 99.3448 139.308 97.9655 138.615 96.0345L131.55 76.0345H89.9899L82.9246 96.0345C82.2319 97.9655 80.431 99.3448 78.353 99.3448H70.318C68.6556 99.3448 67.4088 97.6897 68.1014 96.0345L101.765 5.96552C102.458 4.03448 104.259 2.7931 106.337 2.7931H115.203C117.281 2.7931 119.082 4.03448 119.775 5.96552L153.577 96.0345C154.131 97.6897 152.884 99.3448 151.222 99.3448H143.326ZM94.5615 63.4828H127.117L110.77 17.5517L94.5615 63.4828Z" fill="white" fill-opacity="0.09"/>
<path d="M208.929 88.1724C219.458 88.1724 227.908 84.1724 233.865 77.9655C235.112 76.5862 237.052 76.3103 238.575 77.4138L243.84 80.8621C245.779 82.1035 246.195 84.8621 244.532 86.5172C235.805 95.4828 223.337 101 208.929 101C180.252 101 159.611 79.3448 159.611 51.069C159.611 22.7931 180.252 1 208.929 1C223.337 1 235.805 6.51724 244.532 15.6207C246.195 17.2759 245.779 20.0345 243.84 21.2759L238.575 24.7241C237.052 25.6897 235.112 25.4138 233.865 24.1724C227.908 17.9655 219.458 13.9655 208.929 13.9655C186.348 13.9655 173.741 32.3103 173.741 51.069C173.741 69.8276 186.348 88.1724 208.929 88.1724Z" fill="white" fill-opacity="0.09"/>
<path d="M327.251 94.2414C329.052 96.3103 327.528 99.3448 324.896 99.3448H316.723C314.922 99.3448 313.259 98.5172 312.013 97.2759L274.47 54.2414V95.6207C274.47 97.6897 272.807 99.3448 270.868 99.3448H264.357C262.279 99.3448 260.616 97.6897 260.616 95.6207V6.51724C260.616 4.44828 262.279 2.7931 264.357 2.7931H270.868C272.807 2.7931 274.47 4.44828 274.47 6.51724V48.8621L309.658 5.13794C310.904 3.6207 312.705 2.7931 314.506 2.7931H321.71C324.204 2.7931 325.728 5.82759 324.065 7.75862L289.155 50.5172L327.251 94.2414Z" fill="white" fill-opacity="0.09"/>
<path d="M413.494 99.3448C411.278 99.3448 409.477 97.9655 408.784 96.0345L401.719 76.0345H360.159L353.093 96.0345C352.401 97.9655 350.6 99.3448 348.522 99.3448H340.487C338.824 99.3448 337.578 97.6897 338.27 96.0345L371.934 5.96552C372.627 4.03448 374.428 2.7931 376.506 2.7931H385.372C387.45 2.7931 389.251 4.03448 389.944 5.96552L423.746 96.0345C424.3 97.6897 423.053 99.3448 421.391 99.3448H413.494ZM364.73 63.4828H397.286L380.939 17.5517L364.73 63.4828Z" fill="white" fill-opacity="0.09"/>
<path d="M480.345 50.7931C480.345 48.8621 482.007 47.2069 484.085 47.2069H519.966C522.044 47.2069 523.706 48.8621 523.706 50.7931V96.3103C523.706 97.9655 522.321 99.3448 520.52 99.3448H517.61C515.948 99.3448 514.701 98.1035 514.563 96.4483L513.593 83.4828C506.943 94.3793 495.584 101 479.098 101C450.421 101 429.78 79.3448 429.78 51.069C429.78 22.7931 450.421 1 479.098 1C493.506 1 505.974 6.51724 514.701 15.6207C516.364 17.2759 515.948 20.0345 514.009 21.2759L508.744 24.7241C507.22 25.6897 505.281 25.4138 504.034 24.1724C498.077 17.9655 489.627 13.9655 479.098 13.9655C456.517 13.9655 443.91 32.3103 443.91 51.069C443.91 69.8276 456.517 88.1724 479.098 88.1724C499.462 88.1724 510.407 75.4828 512.623 59.7586H484.085C482.007 59.7586 480.345 58.1034 480.345 56.0345V50.7931Z" fill="white" fill-opacity="0.09"/>
<path d="M541.608 6.51724C541.608 4.44828 543.271 2.7931 545.349 2.7931H551.86C553.938 2.7931 555.6 4.44828 555.6 6.51724V95.6207C555.6 97.6897 553.938 99.3448 551.86 99.3448H545.349C543.271 99.3448 541.608 97.6897 541.608 95.6207V6.51724Z" fill="white" fill-opacity="0.09"/>
<path d="M637.229 6.51724C637.229 4.44828 638.892 2.7931 640.97 2.7931H647.481C649.42 2.7931 651.083 4.44828 651.083 6.51724V95.6207C651.083 97.6897 649.42 99.3448 647.481 99.3448H642.217C640.277 99.3448 638.338 98.3793 637.229 96.7241L588.742 28.1724V95.6207C588.742 97.6897 587.08 99.3448 585.141 99.3448H578.629C576.551 99.3448 574.889 97.6897 574.889 95.6207V6.51724C574.889 4.44828 576.551 2.7931 578.629 2.7931H583.755C585.833 2.7931 587.634 3.75863 588.881 5.41379L637.229 73.8276V6.51724Z" fill="white" fill-opacity="0.09"/>
<path d="M717.639 50.7931C717.639 48.8621 719.301 47.2069 721.379 47.2069H757.26C759.338 47.2069 761 48.8621 761 50.7931V96.3103C761 97.9655 759.615 99.3448 757.814 99.3448H754.904C753.242 99.3448 751.995 98.1035 751.857 96.4483L750.887 83.4828C744.237 94.3793 732.878 101 716.392 101C687.715 101 667.074 79.3448 667.074 51.069C667.074 22.7931 687.715 1 716.392 1C730.8 1 743.268 6.51724 751.995 15.6207C753.658 17.2759 753.242 20.0345 751.303 21.2759L746.038 24.7241C744.514 25.6897 742.575 25.4138 741.328 24.1724C735.371 17.9655 726.921 13.9655 716.392 13.9655C693.811 13.9655 681.204 32.3103 681.204 51.069C681.204 69.8276 693.811 88.1724 716.392 88.1724C736.757 88.1724 747.701 75.4828 749.917 59.7586H721.379C719.301 59.7586 717.639 58.1034 717.639 56.0345V50.7931Z" fill="white" fill-opacity="0.09"/>
<path d="M32.0317 2.7931C53.9201 2.7931 66.9423 16.5862 66.9423 34.2414C66.9423 51.8966 53.9201 65.8276 32.0317 65.8276H14.8534V95.6207C14.8534 97.6897 13.3296 99.3448 11.2515 99.3448H4.74043C2.66241 99.3448 1 97.6897 1 95.6207V6.51724C1 4.44828 2.66241 2.7931 4.74043 2.7931H32.0317ZM32.0317 53.1379C45.0539 53.1379 52.8118 45.5517 52.8118 34.2414C52.8118 22.931 45.0539 15.3448 32.0317 15.3448H14.8534V53.1379H32.0317Z" stroke="white" stroke-opacity="0.1" stroke-width="2" mask="url(#path-1-outside-1_156_155)"/>
<path d="M143.326 99.3448C141.109 99.3448 139.308 97.9655 138.615 96.0345L131.55 76.0345H89.9899L82.9246 96.0345C82.2319 97.9655 80.431 99.3448 78.353 99.3448H70.318C68.6556 99.3448 67.4088 97.6897 68.1014 96.0345L101.765 5.96552C102.458 4.03448 104.259 2.7931 106.337 2.7931H115.203C117.281 2.7931 119.082 4.03448 119.775 5.96552L153.577 96.0345C154.131 97.6897 152.884 99.3448 151.222 99.3448H143.326ZM94.5615 63.4828H127.117L110.77 17.5517L94.5615 63.4828Z" stroke="white" stroke-opacity="0.1" stroke-width="2" mask="url(#path-1-outside-1_156_155)"/>
<path d="M208.929 88.1724C219.458 88.1724 227.908 84.1724 233.865 77.9655C235.112 76.5862 237.052 76.3103 238.575 77.4138L243.84 80.8621C245.779 82.1035 246.195 84.8621 244.532 86.5172C235.805 95.4828 223.337 101 208.929 101C180.252 101 159.611 79.3448 159.611 51.069C159.611 22.7931 180.252 1 208.929 1C223.337 1 235.805 6.51724 244.532 15.6207C246.195 17.2759 245.779 20.0345 243.84 21.2759L238.575 24.7241C237.052 25.6897 235.112 25.4138 233.865 24.1724C227.908 17.9655 219.458 13.9655 208.929 13.9655C186.348 13.9655 173.741 32.3103 173.741 51.069C173.741 69.8276 186.348 88.1724 208.929 88.1724Z" stroke="white" stroke-opacity="0.1" stroke-width="2" mask="url(#path-1-outside-1_156_155)"/>
<path d="M327.251 94.2414C329.052 96.3103 327.528 99.3448 324.896 99.3448H316.723C314.922 99.3448 313.259 98.5172 312.013 97.2759L274.47 54.2414V95.6207C274.47 97.6897 272.807 99.3448 270.868 99.3448H264.357C262.279 99.3448 260.616 97.6897 260.616 95.6207V6.51724C260.616 4.44828 262.279 2.7931 264.357 2.7931H270.868C272.807 2.7931 274.47 4.44828 274.47 6.51724V48.8621L309.658 5.13794C310.904 3.6207 312.705 2.7931 314.506 2.7931H321.71C324.204 2.7931 325.728 5.82759 324.065 7.75862L289.155 50.5172L327.251 94.2414Z" stroke="white" stroke-opacity="0.1" stroke-width="2" mask="url(#path-1-outside-1_156_155)"/>
<path d="M413.494 99.3448C411.278 99.3448 409.477 97.9655 408.784 96.0345L401.719 76.0345H360.159L353.093 96.0345C352.401 97.9655 350.6 99.3448 348.522 99.3448H340.487C338.824 99.3448 337.578 97.6897 338.27 96.0345L371.934 5.96552C372.627 4.03448 374.428 2.7931 376.506 2.7931H385.372C387.45 2.7931 389.251 4.03448 389.944 5.96552L423.746 96.0345C424.3 97.6897 423.053 99.3448 421.391 99.3448H413.494ZM364.73 63.4828H397.286L380.939 17.5517L364.73 63.4828Z" stroke="white" stroke-opacity="0.1" stroke-width="2" mask="url(#path-1-outside-1_156_155)"/>
<path d="M480.345 50.7931C480.345 48.8621 482.007 47.2069 484.085 47.2069H519.966C522.044 47.2069 523.706 48.8621 523.706 50.7931V96.3103C523.706 97.9655 522.321 99.3448 520.52 99.3448H517.61C515.948 99.3448 514.701 98.1035 514.563 96.4483L513.593 83.4828C506.943 94.3793 495.584 101 479.098 101C450.421 101 429.78 79.3448 429.78 51.069C429.78 22.7931 450.421 1 479.098 1C493.506 1 505.974 6.51724 514.701 15.6207C516.364 17.2759 515.948 20.0345 514.009 21.2759L508.744 24.7241C507.22 25.6897 505.281 25.4138 504.034 24.1724C498.077 17.9655 489.627 13.9655 479.098 13.9655C456.517 13.9655 443.91 32.3103 443.91 51.069C443.91 69.8276 456.517 88.1724 479.098 88.1724C499.462 88.1724 510.407 75.4828 512.623 59.7586H484.085C482.007 59.7586 480.345 58.1034 480.345 56.0345V50.7931Z" stroke="white" stroke-opacity="0.1" stroke-width="2" mask="url(#path-1-outside-1_156_155)"/>
<path d="M541.608 6.51724C541.608 4.44828 543.271 2.7931 545.349 2.7931H551.86C553.938 2.7931 555.6 4.44828 555.6 6.51724V95.6207C555.6 97.6897 553.938 99.3448 551.86 99.3448H545.349C543.271 99.3448 541.608 97.6897 541.608 95.6207V6.51724Z" stroke="white" stroke-opacity="0.1" stroke-width="2" mask="url(#path-1-outside-1_156_155)"/>
<path d="M637.229 6.51724C637.229 4.44828 638.892 2.7931 640.97 2.7931H647.481C649.42 2.7931 651.083 4.44828 651.083 6.51724V95.6207C651.083 97.6897 649.42 99.3448 647.481 99.3448H642.217C640.277 99.3448 638.338 98.3793 637.229 96.7241L588.742 28.1724V95.6207C588.742 97.6897 587.08 99.3448 585.141 99.3448H578.629C576.551 99.3448 574.889 97.6897 574.889 95.6207V6.51724C574.889 4.44828 576.551 2.7931 578.629 2.7931H583.755C585.833 2.7931 587.634 3.75863 588.881 5.41379L637.229 73.8276V6.51724Z" stroke="white" stroke-opacity="0.1" stroke-width="2" mask="url(#path-1-outside-1_156_155)"/>
<path d="M717.639 50.7931C717.639 48.8621 719.301 47.2069 721.379 47.2069H757.26C759.338 47.2069 761 48.8621 761 50.7931V96.3103C761 97.9655 759.615 99.3448 757.814 99.3448H754.904C753.242 99.3448 751.995 98.1035 751.857 96.4483L750.887 83.4828C744.237 94.3793 732.878 101 716.392 101C687.715 101 667.074 79.3448 667.074 51.069C667.074 22.7931 687.715 1 716.392 1C730.8 1 743.268 6.51724 751.995 15.6207C753.658 17.2759 753.242 20.0345 751.303 21.2759L746.038 24.7241C744.514 25.6897 742.575 25.4138 741.328 24.1724C735.371 17.9655 726.921 13.9655 716.392 13.9655C693.811 13.9655 681.204 32.3103 681.204 51.069C681.204 69.8276 693.811 88.1724 716.392 88.1724C736.757 88.1724 747.701 75.4828 749.917 59.7586H721.379C719.301 59.7586 717.639 58.1034 717.639 56.0345V50.7931Z" stroke="white" stroke-opacity="0.1" stroke-width="2" mask="url(#path-1-outside-1_156_155)"/>
</g>
<defs>
<filter id="filter0_b_156_155" x="-60" y="-60" width="882" height="222" filterUnits="userSpaceOnUse" color-interpolation-filters="sRGB">
<feFlood flood-opacity="0" result="BackgroundImageFix"/>
<feGaussianBlur in="BackgroundImageFix" stdDeviation="30"/>
<feComposite in2="SourceAlpha" operator="in" result="effect1_backgroundBlur_156_155"/>
<feBlend mode="normal" in="SourceGraphic" in2="effect1_backgroundBlur_156_155" result="shape"/>
</filter>
</defs>
</svg>
